<?xml version="1.0" encoding="utf-8"?>
<!-- Generator: Adobe Illustrator 27.3.1, SVG Export Plug-In . SVG Version: 6.00 Build 0)  -->
<svg version="1.1" id="Layer_1" xmlns="http://www.w3.org/2000/svg" xmlns:xlink="http://www.w3.org/1999/xlink" x="0px" y="0px"
	 viewBox="0 0 60 60" style="enable-background:new 0 0 60 60;" xml:space="preserve">
<style type="text/css">
	.st0{fill:#F29E4A;}
</style>
<path id="Exclusion_1_00000106829053865128017370000008398666291398339494_" class="st0" d="M29.8,55.5L29.8,55.5l-18-23h7v-28h22
	v28h7L29.8,55.5z M29.9,11.5c-0.3,0-0.6,0.2-0.7,0.5l-7.8,14.6c-0.1,0.2-0.2,0.5-0.2,0.8v0c0,1,0.8,1.7,1.8,1.7h2.9
	c1,0,1.8,0.8,1.8,1.8v8.7c0,0.5,0.4,0.9,0.9,0.9c0,0,0,0,0,0h0c0.3,0,0.6-0.2,0.7-0.5l8.8-16.1c0.1-0.3,0.2-0.5,0.2-0.8v0
	c0-1-0.8-1.8-1.8-1.8h-4.9c-0.5,0-0.9-0.4-0.9-0.9v-8C30.8,11.9,30.4,11.5,29.9,11.5C30,11.5,30,11.5,29.9,11.5L29.9,11.5z"/>
</svg>
