<svg xmlns="http://www.w3.org/2000/svg" xml:space="preserve" viewBox="0 0 60 60"><path fill="#4a77f2" d="M47.7 37c-.7-2.9-3.9-7.7-5.6-10.3.1.3.6 2.5.8 3.7.3 2-.4 4-1.9 5.4-1 1.1-2.2 2-3.5 2.7-2.2 1.2-4.5 2.5-6.8 3.6-1.6.7-2.8 2.2-3.1 3.9-.3 2.1-.1 4.3.5 6.4.2.8.5 1.7.7 2.5-2.3-2.3-4.1-5-5.6-7.9-1.7-3.7-.4-7.8 3.6-10.2 2.3-1.4 4.5-2.9 6.9-4.3 4.1-2.4 6.9-8.5 4.7-13.2-1.9-4.1-4.8-7.7-8.5-10.3-2.2-1.8-4.5-3.3-6.9-4.8.3.6 2.3 5.4 2.3 7.5-.1 3.4-1.3 6.8-3.3 9.5-2.1 3.2-4.7 6.3-6.7 9.6-4.4 7-2.5 14.9 4.5 20.1 2.8 2 5.8 3.6 9.1 4.8h.2c.8-2.7 2.9-4.4 5.9-5.5 1.6-.6 3.1-1.3 4.7-1.9 1.8-.8 3.5-1.7 5.1-2.9 2.6-1.9 3.8-5.2 2.9-8.4z"/></svg>
