<?xml version="1.0" encoding="utf-8"?>
<!-- Generator: Adobe Illustrator 27.3.1, SVG Export Plug-In . SVG Version: 6.00 Build 0)  -->
<svg version="1.1" id="Layer_1" xmlns="http://www.w3.org/2000/svg" xmlns:xlink="http://www.w3.org/1999/xlink" x="0px" y="0px"
	 viewBox="0 0 60 60" style="enable-background:new 0 0 60 60;" xml:space="preserve">
<style type="text/css">
	.st0{fill:#F29E4A;}
</style>
<g id="Group_5999_00000129181681048189485130000017861552501184838804_">
	<path id="Path_2012_00000101825897212472669880000001396946984724510633_" class="st0" d="M16.8,30.8L28.8,8.2
		c0.4-0.7,1.2-0.9,1.9-0.6c0.4,0.2,0.7,0.7,0.7,1.2v12.4c0,0.8,0.6,1.4,1.4,1.4h7.6c1.5,0,2.7,1.2,2.7,2.7c0,0.5-0.1,0.9-0.3,1.3
		L29,51.8c-0.4,0.7-1.2,0.9-1.9,0.5c-0.4-0.2-0.7-0.7-0.7-1.2V37.6c0-1.5-1.2-2.7-2.7-2.7l0,0h-4.6c-1.5,0-2.7-1.2-2.7-2.7
		C16.4,31.7,16.5,31.2,16.8,30.8"/>
</g>
</svg>
